<svg viewBox="0 0 222 297" xmlns="http://www.w3.org/2000/svg" xmlns:xlink="http://www.w3.org/1999/xlink"><defs><path id="a" d="M222 125.584v125.583H0V0h222v125.584z"/></defs><g fill="none" fill-rule="evenodd"><g transform="translate(0 45)"><mask id="b" fill="#fff"><use xlink:href="#a"/></mask><path d="M182 0v143.5c0 56.5-43.5 71-71 71s-71-14.5-71-71V0H0v157c0 51 48.167 94.167 111 94.167S222 208 222 157V0h-40z" fill="#4F9E45" mask="url(#b)"/></g><path d="M126.361 151.452h14.688V66.446c0-7.6-5.836-13.75-13.44-13.75H93.765c-7.605 0-13.762 6.153-13.762 13.754L80 151.452h14.687V233l31.628-.035.046-81.513zm4.957-130.5c0 11.57-9.386 20.956-20.952 20.956-11.578 0-20.945-9.386-20.945-20.956C89.421 9.386 98.788 0 110.366 0c11.566 0 20.952 9.386 20.952 20.952z" fill="#646668"/></g></svg>